<?xml version="1.0" encoding="UTF-8" standalone="no"?>
<!-- Created with Inkscape (http://www.inkscape.org/) -->

<svg
   width="78.603996mm"
   height="142.964mm"
   viewBox="0 0 78.603996 142.964"
   version="1.1"
   id="svg5"
   inkscape:version="1.1 (c68e22c387, 2021-05-23)"
   sodipodi:docname="logo_lg.svg"
   xmlns:inkscape="http://www.inkscape.org/namespaces/inkscape"
   xmlns:sodipodi="http://sodipodi.sourceforge.net/DTD/sodipodi-0.dtd"
   xmlns="http://www.w3.org/2000/svg"
   xmlns:svg="http://www.w3.org/2000/svg">
  <sodipodi:namedview
     id="namedview7"
     pagecolor="#ffffff"
     bordercolor="#999999"
     borderopacity="1"
     inkscape:pageshadow="0"
     inkscape:pageopacity="0"
     inkscape:pagecheckerboard="0"
     inkscape:document-units="mm"
     showgrid="false"
     width="78.604mm"
     inkscape:zoom="0.69397447"
     inkscape:cx="160.66874"
     inkscape:cy="448.86378"
     inkscape:window-width="1400"
     inkscape:window-height="987"
     inkscape:window-x="-8"
     inkscape:window-y="-8"
     inkscape:window-maximized="1"
     inkscape:current-layer="layer1" />
  <defs
     id="defs2">
    <inkscape:path-effect
       effect="bspline"
       id="path-effect15711"
       is_visible="true"
       lpeversion="1"
       weight="33.333333"
       steps="2"
       helper_size="0"
       apply_no_weight="true"
       apply_with_weight="true"
       only_selected="false" />
    <inkscape:path-effect
       effect="bspline"
       id="path-effect14237"
       is_visible="true"
       lpeversion="1"
       weight="33.333333"
       steps="2"
       helper_size="0"
       apply_no_weight="true"
       apply_with_weight="true"
       only_selected="false" />
    <inkscape:path-effect
       effect="bspline"
       id="path-effect12544"
       is_visible="true"
       lpeversion="1"
       weight="33.333333"
       steps="2"
       helper_size="0"
       apply_no_weight="true"
       apply_with_weight="true"
       only_selected="false" />
    <inkscape:path-effect
       effect="bspline"
       id="path-effect10798"
       is_visible="true"
       lpeversion="1"
       weight="33.333333"
       steps="2"
       helper_size="0"
       apply_no_weight="true"
       apply_with_weight="true"
       only_selected="false" />
    <inkscape:path-effect
       effect="bspline"
       id="path-effect9400"
       is_visible="true"
       lpeversion="1"
       weight="33.333333"
       steps="2"
       helper_size="0"
       apply_no_weight="true"
       apply_with_weight="true"
       only_selected="false" />
    <inkscape:path-effect
       effect="bspline"
       id="path-effect7434"
       is_visible="true"
       lpeversion="1"
       weight="33.333333"
       steps="2"
       helper_size="0"
       apply_no_weight="true"
       apply_with_weight="true"
       only_selected="false" />
    <inkscape:path-effect
       effect="bspline"
       id="path-effect1577"
       is_visible="true"
       lpeversion="1"
       weight="33.333333"
       steps="2"
       helper_size="0"
       apply_no_weight="true"
       apply_with_weight="true"
       only_selected="false" />
    <inkscape:path-effect
       effect="bspline"
       id="path-effect1193"
       is_visible="true"
       lpeversion="1"
       weight="33.333333"
       steps="2"
       helper_size="0"
       apply_no_weight="true"
       apply_with_weight="true"
       only_selected="false" />
    <inkscape:path-effect
       effect="bspline"
       id="path-effect871"
       is_visible="true"
       lpeversion="1"
       weight="33.333333"
       steps="2"
       helper_size="0"
       apply_no_weight="true"
       apply_with_weight="true"
       only_selected="false" />
  </defs>
  <g
     inkscape:label="Réteg 1"
     inkscape:groupmode="layer"
     id="layer1">
    <g
       id="g18837"
       transform="matrix(1.0000017,0,0,1,-90.361903,-41.613098)">
      <path
         style="fill:#f5c592;fill-opacity:1;stroke:none;stroke-width:0.264583px;stroke-linecap:butt;stroke-linejoin:miter;stroke-opacity:1"
         d="m 120.23925,183.05151 c 0,0 -27.028461,-105.274758 -27.028461,-105.274758 3.50467,0.516714 7.009641,1.033473 10.862581,1.819805 3.85294,0.786332 8.05397,1.842205 11.74964,3.032936 3.69566,1.190731 6.88575,2.516191 9.90743,4.043911 3.02168,1.527721 5.87479,3.257558 8.64934,5.212132 2.77454,1.954574 5.47039,4.133714 7.70574,6.211846 2.23534,2.078128 4.01012,4.055088 5.85232,6.324178 1.84221,2.26908 3.75176,4.83013 5.61643,7.6384 1.86466,2.80827 3.68418,5.86326 5.50391,8.91861 0,0 9.90743,55.80516 9.90743,55.80516 -3.32494,1.48275 -6.64976,2.96544 -10.71608,4.11121 -4.06632,1.14578 -8.87392,1.95453 -13.13123,2.56112 -4.2573,0.60659 -7.96409,1.01096 -11.4463,1.10085 -3.48221,0.0899 -6.7397,-0.13477 -8.941,-0.43805 -2.20129,-0.30328 -3.34668,-0.68537 -4.49175,-1.06735 z"
         id="path869"
         inkscape:path-effect="#path-effect871"
         inkscape:original-d="M 120.23925,183.05151 93.210789,77.776752 c 0,0 7.009611,1.033695 10.514011,1.550143 4.20146,1.056182 8.40249,2.112055 12.60334,3.167684 3.19048,1.325777 6.38057,2.651236 9.57045,3.976455 2.85348,1.730169 5.70659,3.460004 8.55949,5.189611 2.69622,2.179495 5.39206,4.358638 8.0877,6.537561 1.7751,1.977294 3.54987,3.954254 5.32441,5.930984 1.9099,2.56142 3.81945,5.12247 5.72879,7.68332 1.82003,3.05568 5.4592,9.16606 5.4592,9.16606 l 9.90743,55.80516 c 0,0 -6.64962,2.96575 -9.97483,4.44824 -4.80752,0.80905 -9.61512,1.6178 -14.42307,2.42631 -3.70668,0.40465 -7.41347,0.80903 -11.1206,1.21315 -3.25734,-0.2244 -6.51483,-0.44905 -9.77264,-0.67397 -1.14481,-0.38172 -3.43522,-1.14595 -3.43522,-1.14595 z"
         sodipodi:nodetypes="cccccccccccccccc" />
      <path
         style="fill:#f5c592;fill-opacity:1;stroke:none;stroke-width:0.264583px;stroke-linecap:butt;stroke-linejoin:miter;stroke-opacity:1"
         d="m 128.65476,82.534395 c 2.19625,-1.294712 6.58866,-3.884089 11.32666,-6.195491 4.73801,-2.311403 9.82134,-4.344735 12.96856,-5.575217 3.14722,-1.230481 4.35804,-1.658015 5.56902,-2.085602 0,0 0.0843,44.364915 0.0843,44.364915 -3.05007,-3.87612 -6.0999,-7.75195 -9.05466,-11.088 -2.95476,-3.336052 -5.81414,-6.13189 -8.89599,-8.610119 -3.08185,-2.47823 -6.38602,-4.638649 -8.78875,-6.171639 -2.40273,-1.532991 -3.9039,-2.438459 -4.65466,-2.891298 -0.75076,-0.452838 -0.75072,-0.452838 1.44552,-1.747549 z"
         id="path1191"
         inkscape:path-effect="#path-effect1193"
         inkscape:original-d="m 126.45852,83.829106 c 4.39267,-2.589112 8.78508,-5.178489 13.17723,-7.768132 5.08381,-2.033151 10.16714,-4.066487 15.25032,-6.100128 1.21124,-0.427322 3.63293,-1.282761 3.63293,-1.282761 l 0.0843,44.364915 c 0,0 -6.09987,-7.75198 -9.1502,-11.62837 -2.85922,-2.795681 -5.7186,-5.591517 -8.5783,-8.387674 -3.30404,-2.16024 -6.60821,-4.320659 -9.91271,-6.481386 -1.50097,-0.90524 -3.00214,-1.810711 -4.50361,-2.716464 z"
         sodipodi:nodetypes="scsccccccs" />
      <circle
         style="fill:#f7d3ac;fill-opacity:1;stroke-width:2.89901;stroke-linecap:round;stroke-linejoin:round"
         id="path1350"
         cx="114.75867"
         cy="101.60526"
         r="4.5750961" />
      <circle
         style="fill:#f7d3ac;fill-opacity:1;stroke-width:1.81188;stroke-linecap:round;stroke-linejoin:round"
         id="path1350-7"
         cx="145.25931"
         cy="81.017326"
         r="2.8594351" />
      <ellipse
         style="fill:#f7d3ac;fill-opacity:1;stroke-width:3.26754;stroke-linecap:round;stroke-linejoin:round"
         id="path1350-8"
         cx="151.57877"
         cy="163.95351"
         rx="8.089551"
         ry="3.2871504"
         transform="matrix(0.9828208,-0.1845624,-0.02091746,0.99978121,0,0)" />
      <ellipse
         style="fill:#f7d3ac;fill-opacity:1;stroke-width:2.49571;stroke-linecap:round;stroke-linejoin:round"
         id="path1350-8-0"
         cx="-74.381454"
         cy="144.13663"
         rx="6.1787124"
         ry="2.5106902"
         transform="matrix(0.16209708,-0.98677482,0.93255821,0.36101965,0,0)" />
      <ellipse
         style="fill:#f7d3ac;fill-opacity:1;stroke-width:2.02909;stroke-linecap:round;stroke-linejoin:round"
         id="path1350-8-0-0"
         cx="-126.81626"
         cy="168.90744"
         rx="4.2372217"
         ry="2.4200466"
         transform="matrix(0.23636981,-0.97166317,0.96748751,0.25291881,0,0)" />
      <ellipse
         style="fill:#f7d3ac;fill-opacity:1;stroke-width:2.02909;stroke-linecap:round;stroke-linejoin:round"
         id="path1350-8-0-0-9"
         cx="-79.763428"
         cy="211.25282"
         rx="4.2372217"
         ry="2.4200466"
         transform="matrix(0.42302399,-0.90611848,0.89876673,0.43842715,0,0)" />
      <path
         style="fill:#d02924;fill-opacity:1;stroke:none;stroke-width:0.265;stroke-linecap:butt;stroke-linejoin:miter;stroke-miterlimit:4;stroke-dasharray:none;stroke-opacity:1"
         d="m 112.50305,78.507458 c 0.0319,0.01596 0.0955,0.04774 2.04946,0.71493 1.95398,0.66719 5.79794,1.969688 9.64229,3.272319 0,0 8.95957,-5.957155 8.95957,-5.957155 -1.82686,-0.984917 -3.65341,-1.969662 -5.43266,-2.486032 -1.77924,-0.516369 -3.51075,-0.564026 -5.1947,-0.40519 -1.68394,0.158835 -3.32014,0.5242 -4.91674,1.247016 -1.59661,0.722816 -3.15338,1.803024 -4.00332,2.462343 -0.84994,0.659319 -0.99291,0.897602 -1.06437,1.016705 -0.0715,0.119103 -0.0715,0.119099 -0.0395,0.135064 z"
         id="path1575"
         inkscape:path-effect="#path-effect1577"
         inkscape:original-d="m 112.47112,78.491493 c 0.0638,0.03204 0.12735,0.06381 0.19063,0.09532 3.84469,1.302923 11.53305,3.907894 11.53305,3.907894 l 8.95957,-5.957155 c 0,0 -3.65346,-1.969569 -5.48059,-2.95475 -1.73132,-0.04739 -3.46283,-0.09505 -5.19464,-0.142973 -1.636,0.365644 -3.2722,0.731009 -4.9087,1.096118 -1.55657,1.080516 -3.11334,2.160725 -4.67041,3.240694 -0.14271,0.238553 -0.28568,0.476834 -0.42891,0.714856 z"
         sodipodi:nodetypes="scccccccss" />
      <path
         style="fill:#e37816;fill-opacity:1;stroke:none;stroke-width:0.264583px;stroke-linecap:butt;stroke-linejoin:miter;stroke-opacity:1"
         d="m 110.32976,78.38333 c 0.33699,-0.673975 0.67392,-1.347846 1.24686,-1.976964 0.57294,-0.629119 1.38165,-1.213186 2.19042,-1.797299 0,0 -9.70525,-8.289895 -9.70525,-8.289895 0,0 -3.43727,9.503052 -3.43727,9.503052 0,0 9.70524,2.561106 9.70524,2.561106 z"
         id="path7432"
         inkscape:path-effect="#path-effect7434"
         inkscape:original-d="m 110.32976,78.38333 c 0,0 0.67424,-1.347687 1.01096,-2.021925 0.80905,-0.583861 2.42632,-1.752338 2.42632,-1.752338 l -9.70525,-8.289895 -3.43727,9.503052 z"
         sodipodi:nodetypes="cccccc" />
      <path
         style="fill:#e0dede;fill-opacity:1;stroke:none;stroke-width:0.264583px;stroke-linecap:butt;stroke-linejoin:miter;stroke-opacity:1"
         d="m 126.38703,71.819478 c 0,0 3.47898,-5.861841 3.47898,-5.861841 -2.35109,-0.127086 -4.70191,-0.254157 -6.71943,-0.230345 -2.01753,0.02381 -3.70139,0.198551 -5.19472,0.595685 -1.49333,0.397135 -2.79594,1.016669 -3.94767,1.580618 -1.15173,0.563949 -2.15262,1.072335 -3.15342,1.580679 0,0 3.47898,4.289152 3.47898,4.289152 0.49246,-0.174743 0.98507,-0.349541 1.76348,-0.627545 0.77841,-0.278003 1.84274,-0.659254 3.14543,-0.91341 1.30269,-0.254156 2.84358,-0.38124 4.07475,-0.428883 1.23117,-0.04764 2.15225,-0.01588 3.07362,0.01589 0,0 0,3e-6 0,3e-6 z"
         id="path9398"
         inkscape:path-effect="#path-effect9400"
         inkscape:original-d="m 126.38703,71.819478 3.47898,-5.861841 c 0,0 -4.70192,-0.253907 -7.05327,-0.381257 -1.68366,0.175012 -3.36752,0.34975 -5.05167,0.52423 -1.30239,0.619821 -2.605,1.239353 -3.90789,1.858632 -1.00056,0.508619 -3.00241,1.525032 -3.00241,1.525032 l 3.47898,4.289152 c 0,0 0.98518,-0.349221 1.47737,-0.52423 1.06463,-0.381 2.12896,-0.762251 3.19304,-1.143772 1.54121,-0.126826 3.0821,-0.253908 4.62275,-0.381259 0.92166,0.03204 2.76412,0.09531 2.76412,0.09531 z"
         sodipodi:nodetypes="cccccccccccc" />
      <path
         style="fill:#e37816;fill-opacity:1;stroke:none;stroke-width:0.264583px;stroke-linecap:butt;stroke-linejoin:miter;stroke-opacity:1"
         d="m 134.25048,75.870347 c 0,0 8.34002,-3.812582 8.34002,-3.812582 0,0 -6.86265,-10.532253 -6.86265,-10.532253 0,0 -8.14938,10.436939 -8.14938,10.436939 1.2232,0.52423 2.44672,1.048594 3.40781,1.5252 0.96109,0.476606 1.66005,0.905509 2.16042,1.29476 0.50037,0.38925 0.80195,0.738449 1.10378,1.087936 z"
         id="path10796"
         inkscape:path-effect="#path-effect10798"
         inkscape:original-d="m 134.25048,75.870347 8.34002,-3.812582 -6.86265,-10.532253 -8.14938,10.436939 c 0,0 2.44666,1.048723 3.6696,1.572689 0.69926,0.429188 1.39821,0.858096 2.09692,1.286745 0.3021,0.349758 0.90549,1.048462 0.90549,1.048462 z"
         sodipodi:nodetypes="ccccccc" />
      <path
         style="fill:#e0dede;fill-opacity:1;stroke:none;stroke-width:0.264583px;stroke-linecap:butt;stroke-linejoin:miter;stroke-opacity:1"
         d="m 139.92169,64.146662 c 1.12789,-0.651316 2.25586,-1.302678 3.48708,-1.739533 1.23123,-0.436855 2.56561,-0.659252 3.55057,-0.722754 0.98496,-0.0635 1.62038,0.03181 2.89921,0.436941 1.27883,0.40513 3.20097,1.119976 4.52744,1.731629 1.32646,0.611654 2.05688,1.119775 2.78763,1.628119 -1.01669,-1.048459 -2.03312,-2.096646 -3.18483,-3.113366 -1.15171,-1.01672 -2.43843,-2.001618 -3.73313,-2.668895 -1.29469,-0.667277 -2.59729,-1.016754 -3.73317,-1.159776 -1.13587,-0.143022 -2.10489,-0.07948 -3.28841,0.08731 -1.18352,0.166791 -2.58144,0.436844 -3.64586,0.818106 -1.06443,0.381262 -1.79522,0.873753 -2.52596,1.366211 0,0 2.85943,3.336007 2.85943,3.336007 z"
         id="path12542"
         inkscape:path-effect="#path-effect12544"
         inkscape:original-d="m 139.92169,64.146662 c 0,0 2.25604,-1.302366 3.38367,-1.953948 1.33469,-0.222139 2.66907,-0.444537 4.00321,-0.667202 0.6357,0.09558 1.27112,0.190894 1.90629,0.285945 1.92247,0.715137 3.84461,1.429981 5.76652,2.144575 0.73103,0.50862 2.19224,1.525032 2.19224,1.525032 0,0 -2.03311,-2.096653 -3.05007,-3.145377 -1.2865,-0.984673 -2.57322,-1.969569 -3.86023,-2.95475 -1.3024,-0.349229 -2.605,-0.698709 -3.9079,-1.048459 -0.96878,0.06381 -1.9378,0.127349 -2.90709,0.190627 -1.39771,0.27033 -2.79563,0.540382 -4.19384,0.810175 -0.73049,0.492731 -2.19223,1.477375 -2.19223,1.477375 z"
         sodipodi:nodetypes="ccccccccccccc" />
      <path
         style="fill:#d02924;fill-opacity:1;stroke:none;stroke-width:0.264583px;stroke-linecap:butt;stroke-linejoin:miter;stroke-opacity:1"
         d="m 144.06787,71.819478 c 0,0 14.05889,-4.050866 14.05889,-4.050866 -1.49326,-1.000802 -2.98621,-2.001397 -4.27297,-2.628954 -1.28675,-0.627558 -2.36696,-0.881725 -3.54253,-1.080318 -1.17556,-0.198592 -2.4464,-0.341561 -3.67759,-0.341589 -1.23118,-2.9e-5 -2.4226,0.142939 -3.46321,0.532142 -1.04062,0.389202 -1.93025,1.024657 -2.81985,1.660087 0,0 3.71726,5.909498 3.71726,5.909498 z"
         id="path14235"
         inkscape:path-effect="#path-effect14237"
         inkscape:original-d="m 144.06787,71.819478 14.05889,-4.050866 c 0,0 -2.98625,-2.001337 -4.47978,-3.002407 -1.07999,-0.253913 -2.1602,-0.508079 -3.24069,-0.762516 -1.27062,-0.142708 -2.54146,-0.285678 -3.81258,-0.428913 -1.19119,0.143237 -2.3826,0.286207 -3.5743,0.428913 -0.88935,0.635709 -2.6688,1.906291 -2.6688,1.906291 z"
         sodipodi:nodetypes="cccccccc" />
      <path
         style="fill:#92cd33;fill-opacity:1;stroke:none;stroke-width:0.264583px;stroke-linecap:butt;stroke-linejoin:miter;stroke-opacity:1"
         d="m 99.024246,68.929255 c -0.341125,-0.555018 -5.536412,-9.007892 -7.013867,-11.470195 -1.477455,-2.462303 -1.493341,-2.605271 -1.540995,-2.962704 -0.04765,-0.357433 -0.127081,-0.929308 -0.103291,-1.564789 0.02379,-0.635481 0.150874,-1.334438 0.460653,-2.025556 0.309778,-0.691118 0.802225,-1.37419 1.453597,-1.985842 0.651373,-0.611653 1.46153,-1.151758 2.208237,-1.493303 0.746707,-0.341546 1.429782,-0.484514 2.414766,-0.39708 0.984983,0.08743 2.271705,0.405142 3.161264,0.905661 0.88956,0.500519 1.38179,1.183295 1.87425,1.866383 0.60366,-1.080231 1.20727,-2.160372 1.803,-3.097663 0.59573,-0.93729 1.18349,-1.731562 1.81102,-2.406746 0.62752,-0.675183 1.2947,-1.231169 1.9858,-1.652163 0.69109,-0.420993 1.40593,-0.706929 2.28766,-0.865764 0.88173,-0.158834 1.93017,-0.190604 2.91511,-0.150866 0.98495,0.03974 1.90631,0.150935 2.70059,0.548202 0.79428,0.397267 1.46146,1.080338 2.00947,1.834945 0.54802,0.754607 0.97693,1.580651 1.31846,2.287573 0.34153,0.706923 0.59556,1.294364 0.84973,1.882137 1.04846,-1.127888 2.09691,-2.255769 2.81182,-2.938884 0.7149,-0.683115 1.09615,-0.921395 1.69986,-1.191462 0.6037,-0.270068 1.42974,-0.571891 2.34324,-0.722779 0.9135,-0.150887 1.91428,-0.150887 2.83569,-0.04759 0.92141,0.103299 1.76333,0.309809 2.73237,0.651389 0.96905,0.341581 2.06515,0.818142 2.96268,1.358318 0.89753,0.540175 1.59649,1.143823 2.17634,1.588599 0.57984,0.444776 1.04021,0.730522 1.5009,1.016465 0.47657,-0.746631 0.9531,-1.493193 1.54894,-1.969827 0.59583,-0.476634 1.31068,-0.683145 2.14472,-0.826102 0.83405,-0.142957 1.78717,-0.222383 2.57355,-0.182618 0.78639,0.03977 1.40593,0.198622 1.94604,0.444922 0.54011,0.2463 1.00079,0.579891 1.28661,1.135941 0.28581,0.556051 0.39701,1.334437 -0.30996,3.018245 -0.70698,1.683808 -2.23194,4.273053 -3.75697,6.86243 -1.46149,0.190629 -2.92275,0.381227 -4.01891,0.603618 -1.09616,0.222391 -1.82689,0.476558 -2.69273,0.953146 -0.86583,0.476588 -1.86661,1.175547 -2.68477,1.882498 -0.81816,0.706951 -1.45357,1.421791 -2.12873,2.239926 -0.67516,0.818136 -1.39,1.739494 -2.19208,2.112818 -0.80207,0.373325 -1.69165,0.198586 -2.80368,0.02383 -1.11202,-0.174756 -2.44639,-0.349495 -3.86025,-0.452768 -1.41385,-0.103274 -2.90708,-0.135043 -4.00323,-0.111229 -1.09614,0.02381 -1.7951,0.103241 -2.57354,0.254146 -0.77843,0.150906 -1.63625,0.373303 -2.50207,0.714849 -0.86583,0.341546 -1.73953,0.802225 -2.65296,1.270858 -0.91344,0.468634 -1.86667,0.945248 -2.81981,1.42182 -1.76332,-1.096117 -3.52633,-2.192043 -4.51125,-2.763989 -0.98491,-0.571946 -1.19143,-0.619603 -1.35035,-0.627606 -0.15893,-0.008 -0.27013,0.02377 -0.92157,0.961102 -0.65143,0.937336 -1.8428,2.779978 -3.034233,4.622725 0,0 3e-6,-3e-6 -0.341121,-0.555022 z"
         id="path15709"
         inkscape:path-effect="#path-effect15711"
         inkscape:original-d="m 99.36537,69.484274 c 3.96841,-3.968415 -5.877462,-9.562957 -8.816591,-14.344833 -0.01561,-0.142711 -0.03151,-0.285678 -0.04766,-0.428916 -0.07917,-0.571632 -0.158594,-1.143508 -0.238286,-1.715661 0.127354,-0.698723 0.254436,-1.39768 0.381259,-2.096919 0.492731,-0.682836 0.985179,-1.365908 1.477373,-2.049261 0.810455,-0.539861 1.620612,-1.079966 2.43052,-1.620348 0.683366,-0.142708 1.366441,-0.285678 2.049262,-0.428913 1.287036,0.317984 2.573758,0.635693 3.860243,0.953143 0.49273,0.683365 1.47737,2.049264 1.47737,2.049264 0,0 1.20758,-2.160199 1.81098,-3.240694 0.58805,-0.794038 1.17581,-1.588312 1.76332,-2.382864 0.66748,-0.555746 1.33466,-1.111736 2.0016,-1.668002 0.71514,-0.285686 1.42998,-0.571624 2.14458,-0.857832 1.04874,-0.03151 2.09718,-0.06328 3.14538,-0.09531 0.92165,0.111466 1.84301,0.222665 2.76412,0.3336 0.66748,0.683365 1.33466,1.36644 2.0016,2.049261 0.42919,0.826341 0.8581,1.652384 1.28675,2.478177 0.25444,0.58805 0.76251,1.763319 0.76251,1.763319 0,0 2.09719,-2.255512 3.14538,-3.383664 0.38153,-0.238027 0.76278,-0.476308 1.14378,-0.714859 0.82634,-0.301572 1.65238,-0.603396 2.47817,-0.905489 1.00109,2.65e-4 2.00187,2.65e-4 3.00241,0 0.84223,0.206785 1.68415,0.413295 2.52583,0.619546 1.09641,0.476845 2.1925,0.95341 3.28835,1.429715 0.69926,0.603936 1.39822,1.207583 2.09692,1.810978 0.46096,0.286213 1.38206,0.85783 1.38206,0.85783 0,0 0.95341,-1.492997 1.42972,-2.239892 0.71514,-0.206253 1.42999,-0.412765 2.14458,-0.619543 0.95343,-0.07917 1.90655,-0.158593 2.85943,-0.238286 0.61982,0.159126 1.23936,0.317979 1.85864,0.476573 0.46096,0.33387 0.92163,0.667464 1.38206,1.000802 0.11146,0.778682 0.22266,1.557068 0.3336,2.335205 -1.5248,2.589694 -4.5751,7.768132 -4.5751,7.768132 0,0 -2.92271,0.381521 -4.38447,0.571886 -0.73049,0.254442 -1.46122,0.508609 -2.19223,0.762516 -1.00056,0.699251 -2.00134,1.398212 -3.00241,2.096921 -0.63518,0.715137 -1.27059,1.42998 -1.90629,2.144575 -0.7146,0.921657 -1.42945,1.84301 -2.14457,2.76412 -0.88936,-0.174482 -1.77894,-0.349221 -2.66881,-0.524229 -1.33417,-0.174482 -2.66854,-0.349221 -4.00321,-0.52423 -1.49302,-0.03151 -2.98625,-0.06328 -4.47978,-0.09531 -0.69872,0.0797 -1.39768,0.15912 -2.09692,0.238286 -0.85758,0.222668 -1.7154,0.445064 -2.57349,0.6672 -0.87347,0.460962 -1.74717,0.921639 -2.62115,1.382062 -0.9529,0.476845 -2.85943,1.429715 -2.85943,1.429715 0,0 -3.52638,-2.191967 -5.28996,-3.28835 -0.20625,-0.04739 -0.41276,-0.09505 -0.61954,-0.14297 -0.11094,0.03204 -0.22214,0.06381 -0.3336,0.09531 -1.1912,1.843048 -3.574303,5.528242 -3.574303,5.528242 z"
         sodipodi:nodetypes="scccccccccccccccccccccccccccccccccccccccccccccccccs" />
    </g>
  </g>
</svg>
